<?xml version="1.0" encoding="UTF-8"?>
<svg xmlns="http://www.w3.org/2000/svg" id="Layer_1" data-name="Layer 1" viewBox="0 0 24 24">
  <path d="M19.999,12.001c-.018-.342-.209-.652-.507-.821-.084-.048-2.094-1.161-4.316-.637-1.289,.305-2.475,1.036-3.176,1.537-.701-.5-1.887-1.232-3.176-1.537-2.224-.523-4.231,.589-4.316,.637-.298,.169-.489,.479-.507,.821-.196,3.931-.171,6.226,.075,6.821,.918,2.21,6.102,3.731,7.669,4.144,.083,.022,.169,.033,.255,.033s.172-.011,.255-.033c1.567-.413,6.751-1.934,7.669-4.145,.246-.595,.271-2.89,.075-6.82Zm-14.055,6.114c-.116-.475-.078-3.055,.025-5.403,.54-.201,1.461-.444,2.394-.223,1.076,.254,2.116,.948,2.637,1.336v6.841c-2.401-.761-4.764-1.857-5.056-2.552Zm12.132-.06c-.309,.745-2.674,1.849-5.076,2.611v-6.841c.521-.388,1.561-1.082,2.637-1.336,.934-.221,1.855,.021,2.394,.223,.104,2.348,.144,4.923,.046,5.344Z"/>
  <path d="M12.006,9.725c2.74,0,4.276-1.56,4.327-4.38-.047-2.744-1.624-4.328-4.339-4.345-2.702,.017-4.327,1.633-4.327,4.38,0,2.677,1.471,4.345,4.339,4.345Zm-.013-6.725c1.59,.01,2.312,.744,2.34,2.344-.03,1.704-.687,2.371-2.327,2.381-1.646-.01-2.304-.673-2.339-2.363,.034-1.667,.713-2.352,2.326-2.362Z"/>
</svg>
